<?xml version="1.0" encoding="UTF-8"?>
<svg id="Lag_1" xmlns="http://www.w3.org/2000/svg" version="1.1" viewBox="0 0 530.77 140.89">
  <!-- Generator: Adobe Illustrator 29.5.1, SVG Export Plug-In . SVG Version: 2.1.0 Build 141)  -->
  <defs>
    <style>
      .st0 {
        fill: none;
        opacity: 0;
      }
    </style>
  </defs>
  <rect class="st0" x="0" y="0" width="530.77" height="140.89"/>
  <g>
    <rect x="150.93" y="45.28" width="8.95" height="50.32"/>
    <path d="M193.06,60.83c-1.91-1.07-4.12-1.6-6.62-1.6-3.08,0-5.67.83-7.75,2.5-1.22.98-2.28,2.22-3.19,3.72v-5.51h-8.37v35.66h8.54v-20.16c0-2.03.34-3.69,1.01-4.98.68-1.29,1.6-2.25,2.77-2.85,1.17-.61,2.51-.91,4.02-.91,2.27,0,4.04.68,5.28,2.03,1.25,1.35,1.87,3.33,1.87,5.94v20.94h8.54v-22.29c0-3.06-.54-5.64-1.62-7.73-1.08-2.09-2.58-3.67-4.49-4.74Z"/>
    <path d="M230.52,65.24h-.07c-.77-1.37-1.7-2.5-2.8-3.39-1.1-.89-2.33-1.55-3.68-1.98-1.35-.43-2.8-.64-4.36-.64-3.04,0-5.71.78-8.02,2.33-2.31,1.55-4.11,3.71-5.4,6.47-1.29,2.76-1.94,5.95-1.94,9.57s.64,6.74,1.91,9.47c1.27,2.74,3.07,4.88,5.4,6.43,2.33,1.55,5.04,2.33,8.12,2.33,1.58,0,3.03-.22,4.37-.66,1.34-.44,2.55-1.11,3.65-2.01,1.09-.9,2.01-2.03,2.75-3.38h.03v5.4c0,2.72-.74,4.81-2.21,6.25-1.47,1.44-3.54,2.16-6.2,2.16-1.33,0-2.52-.18-3.58-.54-1.06-.36-1.95-.89-2.67-1.59-.72-.7-1.22-1.56-1.49-2.6l-8.34.03c.32,2.32,1.15,4.32,2.5,6.01,1.35,1.69,3.17,2.99,5.45,3.9,2.28.91,4.99,1.37,8.12,1.37s6.1-.53,8.64-1.59c2.54-1.06,4.55-2.72,6.01-5,1.46-2.27,2.19-5.26,2.19-8.95v-34.71h-8.41v5.3ZM229.75,83.46c-.77,1.7-1.84,3.02-3.21,3.95-1.37.93-2.98,1.4-4.83,1.4s-3.3-.44-4.63-1.32c-1.33-.88-2.36-2.16-3.11-3.83-.74-1.68-1.11-3.73-1.11-6.16s.37-4.49,1.11-6.16c.74-1.68,1.78-2.95,3.11-3.83,1.33-.88,2.87-1.32,4.63-1.32,1.85,0,3.46.47,4.83,1.4,1.37.93,2.44,2.25,3.21,3.95.77,1.7,1.15,3.69,1.15,5.96s-.38,4.26-1.15,5.96Z"/>
    <path d="M273.6,64.29c-1.51-1.67-3.31-2.94-5.4-3.83-2.09-.89-4.42-1.33-6.99-1.33-3.33,0-6.28.81-8.85,2.41-2.57,1.61-4.58,3.81-6.03,6.6-1.45,2.79-2.18,6.01-2.18,9.66s.71,6.8,2.13,9.61c1.42,2.8,3.42,5,6.01,6.6,2.59,1.6,5.68,2.4,9.29,2.4,2.77,0,5.3-.5,7.6-1.5,2.3-1,4.2-2.39,5.72-4.17,1.52-1.78,2.5-3.84,2.95-6.18l-8,.03c-.29,1.01-.81,1.9-1.55,2.67-.74.77-1.67,1.37-2.77,1.81-1.1.44-2.36.66-3.78.66-1.98,0-3.66-.43-5.03-1.3-1.37-.87-2.42-2.08-3.14-3.63-.65-1.4-1-3-1.07-4.8h25.79v-2.33c0-2.72-.41-5.22-1.22-7.48-.81-2.26-1.97-4.23-3.48-5.89ZM252.57,74.12c.14-1.36.47-2.58,1-3.65.72-1.46,1.74-2.59,3.06-3.39,1.32-.8,2.89-1.2,4.71-1.2s3.4.4,4.73,1.2c1.33.8,2.35,1.94,3.06,3.41.52,1.07.84,2.29.98,3.63h-17.53Z"/>
    <path d="M309.31,60.83c-1.91-1.07-4.12-1.6-6.62-1.6-3.08,0-5.67.83-7.75,2.5-1.22.98-2.28,2.22-3.19,3.72v-5.51h-8.37v35.66h8.54v-20.16c0-2.03.34-3.69,1.01-4.98.68-1.29,1.6-2.25,2.77-2.85,1.17-.61,2.51-.91,4.02-.91,2.27,0,4.04.68,5.28,2.03,1.25,1.35,1.87,3.33,1.87,5.94v20.94h8.54v-22.29c0-3.06-.54-5.64-1.62-7.73-1.08-2.09-2.58-3.67-4.49-4.74Z"/>
    <rect x="322.29" y="59.94" width="8.54" height="35.66"/>
    <rect x="322.12" y="45.28" width="8.81" height="8.27"/>
    <path d="M395.05,59.6c-2.3,0-4.15.53-5.55,1.59-1.41,1.06-2.43,2.61-3.06,4.66h-.13v-5.91h-8.21v35.66h8.54v-20.23c0-1.85.32-3.39.95-4.63.63-1.24,1.49-2.17,2.58-2.79,1.09-.62,2.3-.93,3.63-.93.86,0,1.67.03,2.43.1l1.62.14v-7.58l-1.25-.06c-.47-.02-.99-.03-1.55-.03Z"/>
    <path d="M428.57,64.29c-1.51-1.67-3.31-2.94-5.4-3.83-2.09-.89-4.42-1.33-6.99-1.33-3.33,0-6.28.8-8.85,2.41-2.57,1.61-4.58,3.81-6.03,6.6-1.45,2.79-2.18,6.01-2.18,9.66s.71,6.8,2.13,9.61c1.42,2.8,3.42,5,6.01,6.6,2.59,1.6,5.68,2.4,9.29,2.4,2.77,0,5.3-.5,7.6-1.5,2.3-1,4.2-2.39,5.72-4.17,1.52-1.78,2.5-3.84,2.95-6.18l-8,.03c-.29,1.01-.81,1.9-1.55,2.67-.74.77-1.67,1.37-2.77,1.81-1.1.44-2.36.66-3.78.66-1.98,0-3.66-.43-5.03-1.3-1.37-.87-2.42-2.08-3.14-3.63-.65-1.4-1-3-1.07-4.8h25.79v-2.33c0-2.72-.41-5.22-1.22-7.48-.81-2.26-1.97-4.23-3.48-5.89ZM407.55,74.12c.14-1.36.47-2.58,1-3.65.72-1.46,1.74-2.59,3.06-3.39,1.32-.8,2.89-1.2,4.71-1.2s3.4.4,4.73,1.2c1.33.8,2.35,1.94,3.06,3.41.52,1.07.84,2.29.98,3.63h-17.53Z"/>
    <path d="M468.77,65.58c-1.08-2.09-2.58-3.67-4.49-4.74-1.91-1.07-4.12-1.6-6.62-1.6-3.08,0-5.67.83-7.75,2.5-1.22.98-2.28,2.22-3.19,3.72v-5.51h-8.37v35.66h8.54v-20.16c0-2.03.34-3.69,1.01-4.98.68-1.29,1.6-2.25,2.77-2.85,1.17-.61,2.51-.91,4.02-.91,2.27,0,4.04.68,5.28,2.03,1.25,1.35,1.87,3.33,1.87,5.94v20.94h8.54v-22.29c0-3.06-.54-5.64-1.62-7.73Z"/>
    <rect x="45.28" y="30.19" width="30.19" height="30.19"/>
    <rect x="75.47" y="60.38" width="30.19" height="50.31"/>
    <path d="M368.87,58.32l-3.75,4.13c-.46-.34-.93-.67-1.44-.97-2.63-1.56-5.71-2.35-9.22-2.35s-6.59.78-9.24,2.35c-2.65,1.56-4.7,3.75-6.16,6.57-1.46,2.81-2.19,6.08-2.19,9.79s.73,6.93,2.19,9.71c.4.76.84,1.46,1.33,2.13l-3.91,4.31,3.61,3.24,3.72-4.1c.45.33.92.65,1.41.95,2.65,1.56,5.72,2.35,9.24,2.35s6.59-.78,9.22-2.35c2.63-1.56,4.69-3.74,6.16-6.52s2.21-6.02,2.21-9.71-.74-6.98-2.21-9.79c-.4-.76-.85-1.48-1.33-2.15l3.93-4.33-3.58-3.24ZM345.52,77.8c0-2.39.37-4.44,1.1-6.16.73-1.72,1.77-3.05,3.11-3.98s2.92-1.4,4.74-1.4,3.41.47,4.74,1.4c.24.17.46.36.68.55l-13.56,14.93c-.53-1.54-.81-3.31-.81-5.34ZM362.32,83.93c-.73,1.72-1.77,3.05-3.11,3.98-1.34.93-2.92,1.4-4.74,1.4s-3.43-.47-4.76-1.4c-.24-.17-.45-.36-.67-.55l13.56-14.95c.54,1.56.82,3.34.82,5.38,0,2.36-.37,4.41-1.1,6.13Z"/>
  </g>
</svg>